<svg id='chat' viewBox="0 0 51 51" fill="none" xmlns="http://www.w3.org/2000/svg">
<g id="faq_chat_questions_messages_message_icon_147463 2">
<path id="Vector" d="M33.4847 36.7456V37.925C33.4847 38.2947 33.1819 38.6007 32.8089 38.6007H30.9347C30.5713 38.588 30.278 38.2947 30.278 37.925V36.7456C30.278 36.3535 30.5968 36.0348 30.9889 36.0348H32.7133C33.0926 36.0539 33.389 36.3631 33.389 36.7456H33.4847ZM35.6203 26.2109C34.782 25.5351 33.7014 25.1271 32.5284 25.124H31.9483C30.8327 25.124 29.7967 25.4841 28.952 26.0898L28.968 26.077C28.238 26.638 27.7727 27.5114 27.7695 28.4931C27.7695 28.7418 27.9703 28.9426 28.2189 28.9426H30.1856C30.1888 28.9426 30.192 28.9426 30.1984 28.9426C30.5107 28.9426 30.7689 28.7418 30.8582 28.4581V28.4549C30.9219 28.2222 31.0462 28.0246 31.2152 27.8748C31.4765 27.6325 31.8335 27.4827 32.2192 27.4827C32.2224 27.4827 32.2224 27.4827 32.2256 27.4827H32.4137C33.201 27.4827 33.8385 28.1202 33.8385 28.9075C33.8417 28.949 33.8449 28.9936 33.8449 29.0382C33.8449 29.0828 33.8417 29.1275 33.8385 29.1721V29.1689V29.2454C33.8353 29.6916 33.7046 30.1028 33.4783 30.4535L33.4815 30.4471C33.2233 30.8136 32.9109 31.126 32.5571 31.3778L32.5444 31.3842C31.9132 31.7826 31.3777 32.264 30.9442 32.8313L30.9315 32.8473C30.6542 33.2266 30.4789 33.6983 30.4629 34.2115V34.2147C30.4597 34.2338 30.4597 34.253 30.4597 34.2721C30.4597 34.5207 30.6605 34.7215 30.9092 34.7215C30.9251 34.7215 30.9379 34.7215 30.9506 34.7183H33.0862C33.3412 34.7024 33.5484 34.5175 33.593 34.2721C33.6313 33.9725 33.7046 33.6951 33.8066 33.4401L33.8002 33.4625C33.9851 33.1086 34.2529 32.825 34.5812 32.6241L34.5875 32.621C35.276 32.2608 35.853 31.7667 36.3056 31.1706L36.312 31.1579C36.7455 30.5905 37.0132 29.8765 37.0228 29.0988C36.9463 27.9417 36.4299 26.909 35.6394 26.1758L35.6362 26.1726L35.6203 26.2109ZM3.38511 29.2486C2.88786 29.5896 2.55954 30.1602 2.55954 30.8009C2.55317 30.8646 2.54361 30.9411 2.54361 31.0176C2.54361 31.0941 2.54679 31.1675 2.55954 31.244V31.2376C2.74442 31.9866 3.35642 32.5572 4.12142 32.6624H4.13417C4.53898 32.723 5.00754 32.7548 5.47929 32.7548H5.83948C5.84586 32.7548 5.85861 32.7548 5.86498 32.7548C7.43961 32.7548 8.93136 32.401 10.2637 31.7731L10.2 31.7986C10.9204 32.1843 11.7619 32.5413 12.6448 32.8186L12.75 32.8473H12.8615V32.1173C12.8647 31.2822 12.9412 30.463 13.0783 29.6693L13.0655 29.7554V29.8478C12.1922 29.5195 11.459 29.1689 10.7514 28.7768L10.8343 28.8183L10.047 28.388L9.33617 28.8183C8.63173 29.2486 7.80298 29.561 6.92004 29.6948L6.88179 29.698C7.28342 29.1593 7.62448 28.541 7.87629 27.878L7.89542 27.827L8.17592 26.9823L7.59579 26.3448C5.74067 24.4386 4.59317 21.8345 4.57723 18.9657C4.57723 12.425 10.7992 7.06358 18.3695 7.06358C18.5034 7.06039 18.666 7.0572 18.8254 7.0572C24.1676 7.0572 28.8022 10.0662 31.1355 14.4873L31.1737 14.5638C31.5499 14.5638 31.961 14.5638 32.3914 14.5638H32.6527C33.1978 14.5638 33.7397 14.5638 34.3198 14.5638C31.8017 8.40233 25.8538 4.13745 18.9082 4.13745C18.752 4.13745 18.5959 4.14064 18.4429 4.14383H18.4652C9.26286 4.14383 1.76904 10.7961 1.76904 18.9689C1.76904 18.9753 1.76904 18.988 1.76904 18.9976C1.76904 22.2775 2.94523 25.2801 4.89917 27.6102L4.88004 27.5879C4.51029 28.2732 3.98754 28.8374 3.36279 29.2454L3.34367 29.2581L3.38511 29.2486ZM49.2245 31.8719C49.1959 35.222 47.9814 38.282 45.9829 40.6662L46.002 40.6439C46.3685 41.3292 46.8817 41.887 47.5065 42.3014L47.5224 42.3141C48.0165 42.652 48.3448 43.213 48.348 43.8505C48.3544 43.9143 48.3639 43.9876 48.3639 44.0641C48.3639 44.1406 48.3607 44.2139 48.348 44.2904V44.284C48.1631 45.0331 47.5511 45.6036 46.7861 45.7088H46.7734C46.3685 45.7694 45.9 45.8013 45.425 45.8013H45.1063C45.0935 45.8013 45.084 45.8013 45.0712 45.8013C43.4488 45.8013 41.9156 45.4251 40.5482 44.7621L40.6087 44.7876C38.1926 46.0276 35.3366 46.7543 32.3053 46.7543C32.2862 46.7543 32.2639 46.7543 32.2447 46.7543C22.8735 46.7543 15.3829 40.0064 15.3829 31.7635C15.3829 23.5206 23.0105 16.7727 32.2479 16.7727C41.4853 16.7727 49.113 23.5015 49.113 31.7635L49.2245 31.8719ZM46.3207 31.8719C46.3207 25.2196 40.0605 19.804 32.3404 19.804C24.6202 19.804 18.36 25.2196 18.36 31.8719C18.36 38.5242 24.6202 43.9206 32.3404 43.9206C32.3627 43.9206 32.385 43.9206 32.4105 43.9206C35.2219 43.9206 37.8611 43.178 40.1338 41.8743L40.0573 41.9157L40.7681 41.4663L41.4789 41.9157C42.2184 42.346 43.0822 42.6584 44.0098 42.7923L44.048 42.7955C43.6432 42.2568 43.3022 41.6384 43.0535 40.9754L43.0344 40.9244L42.7348 40.0988L43.334 39.4613C45.1605 37.4978 46.292 34.865 46.3335 31.9739V31.9675L46.3207 31.8719Z" fill="#BEBEBE"/>
</g>
</svg>
