<svg id='send' viewBox="0 0 26 26" fill="none" xmlns="http://www.w3.org/2000/svg">
<path d="M16.2505 23.1218C16.1141 23.1217 15.9812 23.0787 15.8706 22.9989C15.76 22.9191 15.6774 22.8066 15.6343 22.6772L12.4805 13.2288L3.59366 10.0841C3.46492 10.0384 3.35386 9.95329 3.27624 9.84087C3.19863 9.72846 3.1584 9.59444 3.16128 9.45786C3.16416 9.32129 3.20999 9.18908 3.29228 9.08004C3.37456 8.97099 3.48911 8.89064 3.61966 8.8504L21.9991 3.1889C22.1125 3.15409 22.2333 3.151 22.3484 3.17998C22.4635 3.20895 22.5685 3.26888 22.6519 3.35326C22.7353 3.43765 22.7941 3.54327 22.8218 3.65866C22.8495 3.77406 22.845 3.89484 22.809 4.0079L16.8693 22.6681C16.8278 22.799 16.746 22.9133 16.6355 22.9949C16.5251 23.0764 16.3916 23.1208 16.2544 23.1218H16.2505ZM5.88036 9.5147L13.2176 12.1147C13.3106 12.1477 13.3949 12.2016 13.4641 12.2721C13.5332 12.3426 13.5854 12.4279 13.6167 12.5216L16.2362 20.3788L21.1905 4.797L5.88036 9.5147Z" fill="white"/>
<path d="M13.0006 13.3692C12.9134 13.3697 12.8271 13.3524 12.7469 13.3184C12.6667 13.2844 12.5942 13.2345 12.5339 13.1716C12.4139 13.0478 12.348 12.8815 12.3507 12.7091C12.3533 12.5367 12.4244 12.3725 12.5482 12.2525L17.1424 7.80001C17.2036 7.74026 17.2761 7.69316 17.3556 7.66141C17.4351 7.62966 17.52 7.61388 17.6056 7.61497C17.6912 7.61605 17.7758 7.63399 17.8544 7.66774C17.9331 7.7015 18.0043 7.75042 18.0641 7.81171C18.1238 7.87299 18.1709 7.94545 18.2027 8.02494C18.2344 8.10443 18.2502 8.18939 18.2491 8.27498C18.248 8.36057 18.2301 8.4451 18.1963 8.52376C18.1626 8.60242 18.1136 8.67366 18.0524 8.73341L13.4569 13.1872C13.3344 13.3052 13.1706 13.3706 13.0006 13.3692Z" fill="white"/>
<path d="M9.75056 22.8397C9.61682 22.8397 9.48635 22.7984 9.37692 22.7216C9.2675 22.6447 9.18445 22.5359 9.1391 22.4101C9.09375 22.2843 9.08831 22.1476 9.12352 22.0186C9.15873 21.8895 9.23288 21.7745 9.33586 21.6892L12.5859 18.9995C12.7188 18.891 12.8892 18.8395 13.0599 18.8562C13.2306 18.8728 13.3879 18.9563 13.4973 19.0884C13.6068 19.2205 13.6596 19.3905 13.6442 19.5614C13.6288 19.7322 13.5465 19.8901 13.4153 20.0005L10.1653 22.6902C10.0487 22.7868 9.90198 22.8397 9.75056 22.8397Z" fill="white"/>
<path d="M3.81099 22.8397C3.68238 22.8397 3.55666 22.8015 3.44976 22.73C3.34285 22.6585 3.25956 22.5569 3.21043 22.438C3.1613 22.3191 3.14853 22.1884 3.17375 22.0623C3.19897 21.9361 3.26103 21.8203 3.3521 21.7295L9.29049 15.7898C9.41255 15.6678 9.57809 15.5992 9.75069 15.5992C9.9233 15.5992 10.0888 15.6678 10.2109 15.7898C10.3329 15.9119 10.4015 16.0774 10.4015 16.25C10.4015 16.4226 10.3329 16.5881 10.2109 16.7102L4.27119 22.6486C4.21083 22.7092 4.1391 22.7572 4.06013 22.79C3.98117 22.8228 3.8965 22.8397 3.81099 22.8397Z" fill="white"/>
<path d="M3.81062 16.9C3.68724 16.9 3.5664 16.8649 3.46224 16.7987C3.35808 16.7326 3.27489 16.6382 3.2224 16.5265C3.16991 16.4149 3.15028 16.2906 3.16582 16.1682C3.18135 16.0458 3.2314 15.9303 3.31012 15.8353L5.99982 12.5853C6.11026 12.454 6.26811 12.3717 6.43897 12.3564C6.60983 12.341 6.77983 12.3938 6.91193 12.5032C7.04403 12.6127 7.1275 12.7699 7.14415 12.9407C7.1608 13.1114 7.10928 13.2818 7.00082 13.4147L4.31112 16.6647C4.25013 16.7383 4.17366 16.7976 4.08714 16.8382C4.00063 16.8789 3.90622 16.9 3.81062 16.9Z" fill="white"/>
</svg>
